HIERARCHY
ROOT Hips
{
	OFFSET 0.000000 0.000000 0.000000 
	CHANNELS 6 Xposition Yposition Zposition Yrotation Zrotation Xrotation 
	JOINT Lumbar
	{
		OFFSET 0.000000 0.000000 0.000000 
		CHANNELS 3 Zrotation Xrotation Yrotation
		JOINT Neck
		{
			OFFSET 0.000000 0.445665 0.000000 
			CHANNELS 3 Zrotation Xrotation Yrotation
			End Site
			{
				OFFSET 0.000000 0.227535 0.000000 
			}
		}
		JOINT RightShoulder
		{
			OFFSET 0.019635 0.377685 0.194865 
			CHANNELS 3 Zrotation Xrotation Yrotation
			JOINT RightElbow
			{
				OFFSET 0.000000 -0.243375 0.000000 
				CHANNELS 2 Zrotation Yrotation
				JOINT RightWrist
				{
					OFFSET 0.000000 -0.264825 0.000000 
					CHANNELS 2 Zrotation Xrotation
					End Site
					{
						OFFSET 0.006600 -0.176220 0.000990 
					}
				}
			}
		}
		JOINT LeftShoulder
		{
			OFFSET 0.019635 0.377685 -0.194865 
			CHANNELS 3 Zrotation Xrotation Yrotation
			JOINT LeftElbow
			{
				OFFSET 0.000000 -0.243375 0.000000 
				CHANNELS 2 Zrotation Yrotation
				JOINT LeftWrist
				{
					OFFSET 0.000000 -0.264825 0.000000 
					CHANNELS 2 Zrotation Xrotation
					End Site
					{
						OFFSET 0.006600 -0.176220 -0.000990 
					}
				}
			}
		}
	}
	JOINT RightHip
	{
		OFFSET 0.052140 -0.069960 0.075570 
		CHANNELS 3 Zrotation Xrotation Yrotation
		JOINT RightKnee
		{
			OFFSET 0.000000 -0.402270 0.000000 
			CHANNELS 1 Zrotation
			JOINT RightAnkle
			{
				OFFSET 0.000000 -0.404085 0.000000 
				CHANNELS 3 Zrotation Xrotation Yrotation
				End Site
				{
					OFFSET 0.204105 -0.089430 0.008415 
				}
			}
		}
	}
	JOINT LeftHip
	{
		OFFSET 0.052140 -0.069960 -0.075570 
		CHANNELS 3 Zrotation Xrotation Yrotation
		JOINT LeftKnee
		{
			OFFSET 0.000000 -0.402270 0.000000 
			CHANNELS 1 Zrotation
			JOINT LeftAnkle
			{
				OFFSET 0.000000 -0.404085 0.000000 
				CHANNELS 3 Zrotation Xrotation Yrotation
				End Site
				{
					OFFSET 0.204105 -0.089430 -0.008415 
				}
			}
		}
	}
}
MOTION
Frames: 28
Frame Time: 0.02
-0.50221 0.71008 -0.00219 896.44746 0 -5.75902 -2.11814 5.79409 3.43979 -40.60198 -3.14786 3.243 38.34154 -13.03219 28.58655 75.61641 104.172 -34.40192 -5.7344 41.21789 14.81796 -34.07283 77.01174 -99.33399 -56.61815 4.60474 57.93038 0.44617 -7.58308 -74.04217 12.61722 3.55171 5.98602 68.58065 4.12383 -14.98129 -90.26033 -4.33638 2.79026 9.43932
-0.50015 0.70919 -0.00153 896.37041 0 -5.82829 -1.39118 5.98605 3.27818 -40.9867 -3.52071 2.61571 38.96601 -12.34297 29.09951 74.78234 104.25255 -33.65275 -5.81886 41.58722 15.36054 -33.99026 77.27604 -98.18779 -55.4399 4.50481 58.42301 0.67123 -7.24208 -73.62523 12.2094 2.97968 5.46185 69.23766 3.84522 -14.87809 -90.74565 -4.78737 2.72627 9.59693
-0.49796 0.70828 -0.0008 896.34163 0 -5.89033 -0.80312 6.22659 3.05905 -41.31694 -3.95958 1.84082 39.70737 -11.61424 29.73237 73.93922 104.35976 -32.83711 -5.92324 41.86641 16.07078 -33.87293 77.65424 -96.82299 -54.18376 4.38668 58.95525 0.88605 -6.83535 -73.05912 11.82996 2.44346 4.89562 69.98938 3.4753 -14.80528 -91.30284 -5.33611 2.62832 9.58852
-0.49584 0.70738 -0.00014 896.29157 0 -5.95535 -0.15729 6.43827 2.85773 -41.70064 -4.3502 1.15722 40.41925 -10.93184 30.3023 73.12456 104.43106 -32.05584 -6.01334 42.21843 16.68013 -33.78111 77.96159 -95.57314 -52.97092 4.2779 59.46803 1.10566 -6.45603 -72.55164 11.4256 1.90739 4.38036 70.70236 3.1582 -14.70208 -91.83718 -5.82729 2.54847 9.64536
-0.49368 0.70652 0.00067 896.23679 0 -6.02168 0.51192 6.68113 2.69257 -41.96733 -4.82611 0.363 41.03597 -10.12179 30.91231 72.20146 104.60546 -31.25519 -6.12574 42.43661 17.40526 -33.64664 78.35835 -94.248 -51.72069 4.16351 59.98613 1.32872 -6.08212 -72.07768 11.06696 1.29614 3.72763 71.39386 2.79224 -14.66946 -92.32603 -6.37577 2.45733 9.7467
-0.49157 0.70555 0.0012 896.20431 0 -6.08333 1.09878 6.86944 2.43997 -42.46513 -5.13555 -0.23074 41.87771 -9.574 31.46386 71.50666 104.56997 -30.47874 -6.19648 42.91413 17.92156 -33.59225 78.59211 -93.03403 -50.5291 4.05729 60.50159 1.53958 -5.68494 -71.5006 10.62219 0.85122 3.35082 72.15348 2.5069 -14.49604 -92.92917 -6.82579 2.38176 9.71681
-0.48963 0.7042 0.00092 896.21846 0 -6.13667 1.49633 6.8971 1.94267 -43.58907 -4.97982 -0.26021 43.30073 -9.72638 31.84561 71.41549 103.95336 -29.80035 -6.14502 44.10103 17.85716 -33.78062 78.35331 -92.14865 -49.54824 3.9731 61.01551 1.73226 -5.21878 -70.67353 9.92764 0.86944 3.7657 73.08211 2.46516 -13.93587 -93.81832 -7.00027 2.35619 9.34666
-0.48776 0.70273 0.00036 896.25422 0 -6.18504 1.81471 6.86746 1.36667 -44.95002 -4.64755 -0.07866 44.94646 -10.15103 32.15978 71.56064 103.12301 -29.14739 -6.05108 45.55602 17.56824 -34.04823 77.94444 -91.39015 -48.62553 3.8988 61.52261 1.91031 -4.73576 -69.74905 9.14731 1.05253 4.45656 74.07532 2.50825 -13.23133 -94.82207 -7.06885 2.34766 8.85291
-0.48587 0.70132 -7e-05 896.28239 0 -6.23387 2.16694 6.86254 0.83182 -46.21977 -4.39292 0.02571 46.49826 -10.47377 32.49123 71.61643 102.38743 -28.47196 -5.97831 46.90785 17.35742 -34.27202 77.60864 -90.59463 -47.65636 3.82326 62.02336 2.08603 -4.27456 -68.87074 8.40977 1.15277 5.00924 75.03742 2.51332 -12.58653 -95.7824 -7.17222 2.33227 8.42776
-0.48391 0.69986 -0.00053 896.30281 0 -6.29007 2.52445 6.86508 0.25362 -47.42324 -4.16712 0.05179 48.02777 -10.70286 32.88504 71.59387 101.66433 -27.83556 -5.89931 48.18152 17.25587 -34.52962 77.29448 -89.7018 -46.76471 3.73318 62.5664 2.29896 -3.75135 -67.9783 7.65581 1.28728 5.61508 76.01212 2.51227 -11.96706 -96.71105 -7.33391 2.31218 7.94549
-0.48211 0.69849 -0.00099 896.34385 0 -6.32978 2.85254 6.83765 -0.22882 -48.81519 -3.81905 0.28547 49.64969 -11.19223 33.12954 71.79306 100.86221 -27.13065 -5.82176 49.67806 16.86839 -34.73342 76.89371 -89.04769 -45.73173 3.6762 63.0179 2.43152 -3.35402 -67.09513 6.91688 1.3895 6.17523 76.97227 2.54613 -11.26078 -97.72894 -7.34946 2.30607 7.55363
-0.48068 0.69737 -0.00133 896.43646 0 -6.32553 3.13085 6.74279 -0.64234 -50.72388 -3.35577 1.10914 51.51521 -12.33033 32.99499 72.52635 99.91382 -26.18107 -5.7691 51.76085 15.77322 -34.79174 76.29517 -88.99521 -44.2501 3.70621 63.22975 2.34124 -3.31036 -66.25441 6.22767 1.35911 6.55129 77.89612 2.64921 -10.34469 -98.99049 -6.96977 2.33709 7.45253
-0.4794 0.69635 -0.00166 896.5488 0 -6.30475 3.38022 6.61943 -0.92665 -52.80284 -2.75135 2.12439 53.45564 -13.7191 32.7102 73.47765 98.89197 -25.17166 -5.71777 54.04901 14.39528 -34.78887 75.61759 -89.18325 -42.63331 3.76947 63.34762 2.1714 -3.39399 -65.42907 5.55904 1.29098 6.87029 78.79843 2.78617 -9.34727 -100.3324 -6.44812 2.38111 7.44439
-0.47804 0.6953 -0.00201 896.65197 0 -6.29143 3.63626 6.50777 -1.11595 -54.77021 -2.08142 3.00541 55.33528 -14.999 32.48084 74.34366 97.88759 -24.22171 -5.65829 56.22389 13.12426 -34.79983 74.97219 -89.28147 -41.10719 3.81916 63.50053 2.04107 -3.41842 -64.60127 4.88896 1.24193 7.20935 79.69794 2.91229 -8.39023 -101.62115 -6.00424 2.41778 7.38875
-0.4767 0.69418 -0.00232 896.75699 0 -6.27847 3.91887 6.39868 -1.9149 -56.89577 -1.91318 4.08489 57.343 -16.27823 32.29762 75.16323 96.93277 -23.13449 -5.62732 58.50584 11.92374 -34.87374 74.32521 -89.30748 -39.45777 3.86346 63.68466 1.89635 -3.44784 -63.74836 4.18158 1.19034 7.58277 80.65514 3.02201 -7.41295 -102.98594 -5.50632 2.46175 7.35531
-0.47538 0.69322 -0.00269 896.86227 0 -6.26048 4.13772 6.27913 -1.46516 -58.72224 -0.71842 4.80372 59.08965 -17.60085 31.9908 76.1238 95.87284 -22.321 -5.5402 60.59309 10.52833 -34.79946 73.67938 -89.53213 -38.0346 3.92578 63.7827 1.76255 -3.49742 -62.95583 3.55907 1.13315 7.86753 81.48342 3.17289 -6.46138 -104.20772 -5.08167 2.49257 7.2938
-0.47405 0.69269 -0.00326 896.96578 0 -6.23642 4.21115 6.12996 2.86505 -59.74156 3.71044 4.39163 60.17677 -19.10387 31.31547 77.45804 94.4291 -22.25765 -5.27717 62.24108 8.52299 -34.34537 72.92966 -90.30993 -37.24939 4.03842 63.65569 1.68154 -3.57072 -62.30006 3.15633 1.06688 7.91944 81.9842 3.42795 -5.59269 -105.03366 -4.95291 2.49008 7.18153
-0.47275 0.69232 -0.00388 897.06835 0 -6.20729 4.21797 5.97295 8.36819 -60.4431 9.09167 3.62414 60.98439 -20.62009 30.53234 78.91885 92.90194 -22.4751 -4.9613 63.66026 6.35673 -33.74242 72.20577 -91.26775 -36.69968 4.16649 63.44708 1.61385 -3.66003 -61.70987 2.84049 0.99594 7.88303 82.35132 3.72273 -4.75481 -105.70918 -4.89179 2.47221 7.03005
-0.47145 0.69189 -0.00447 897.16967 0 -6.17793 4.2395 5.82487 13.0216 -61.24731 13.74364 3.07772 61.86425 -22.04603 29.84193 80.2953 91.48983 -22.57779 -4.68373 65.08118 4.36022 -33.19622 71.55703 -92.09979 -36.05522 4.28158 63.28283 1.53793 -3.74277 -61.10746 2.49159 0.92818 7.88707 82.76407 4.00009 -3.90889 -106.44022 -4.76234 2.4578 6.86365
-0.47008 0.69142 -0.00508 897.27865 0 -6.15829 4.32334 5.65315 18.98789 -62.22739 19.6272 2.29182 62.9706 -23.82725 28.96517 81.79112 89.7579 -22.62596 -4.34727 66.92753 1.95395 -32.68889 70.54894 -93.12233 -35.35541 4.42255 63.08524 1.46798 -3.82746 -60.43155 2.11629 0.85485 7.88822 83.2399 4.27739 -3.03522 -107.22683 -4.78876 2.4606 6.83521
-0.46887 0.69106 -0.00566 897.37134 0 -6.11788 4.26488 5.52912 22.53234 -62.7716 23.20123 1.91133 63.54731 -24.88017 28.44848 83.06765 88.66258 -22.85287 -4.11915 67.84774 0.3564 -32.07239 70.2835 -93.79221 -34.82714 4.51347 62.93813 1.39034 -3.90961 -59.92377 1.81624 0.79237 7.8748 83.5529 4.56208 -2.22733 -107.86282 -4.50572 2.42144 6.51319
-0.468 0.69094 -0.00612 897.41757 0 -6.01719 3.80434 5.53945 18.79095 -62.11643 19.89118 2.79132 62.64545 -23.8129 28.99194 83.68669 89.44021 -23.52462 -4.21852 66.11553 1.12314 -31.13592 72.17678 -93.4036 -34.72859 4.45689 62.95787 1.28427 -3.98517 -59.86815 1.70404 0.76181 7.84523 83.44798 4.87182 -1.59783 -108.10216 -3.37737 2.28902 5.35281
-0.46729 0.69093 -0.00655 897.44747 0 -5.89646 3.20738 5.59795 12.62791 -61.045 14.273 4.08019 61.23424 -22.02936 29.89506 84.08276 90.84527 -24.36318 -4.42603 63.4843 2.69475 -30.10481 74.79671 -92.66009 -34.79311 4.35026 63.03045 1.17135 -4.05601 -59.97909 1.66439 0.74237 7.80378 83.18376 5.18485 -1.03307 -108.19765 -1.93254 2.11095 3.90483
-0.46654 0.69088 -0.00698 897.48609 0 -5.78791 2.69028 5.63418 7.77883 -60.21329 9.89198 5.14577 60.11289 -20.64357 30.60815 84.59445 91.89995 -25.11248 -4.57367 61.36517 3.83775 -29.15392 77.00801 -92.10469 -34.77416 4.27005 63.07422 1.06431 -4.12569 -60.01059 1.59037 0.71748 7.76645 82.99365 5.48668 -0.43633 -108.37048 -0.61473 1.94183 2.61252
-0.46562 0.69078 -0.00746 897.51992 0 -5.66685 2.09715 5.67216 2.07531 -59.16304 4.75522 6.35843 58.74085 -18.95888 31.42885 85.05327 93.22236 -25.92807 -4.76399 58.80932 5.23566 -28.04257 79.54668 -91.44309 -34.8011 4.175 63.13476 0.94518 -4.21058 -60.05848 1.52466 0.69402 7.73162 82.79298 5.83054 0.14846 -108.48892 0.63545 1.82352 1.2135
-0.46512 0.6908 -0.00782 897.55899 0 -5.56634 1.62868 5.7175 -2.44598 -58.46593 0.62504 7.365 57.76675 -17.71962 32.11322 85.56395 94.14316 -26.64187 -4.89276 56.94221 6.30163 -27.24258 81.58134 -90.91524 -34.77034 4.09863 63.17472 0.85044 -4.26168 -60.11308 1.45852 0.67034 7.68965 82.5765 6.08755 0.74333 -108.68679 2.09552 1.58683 -0.0311
-0.46573 0.69114 -0.00785 897.62377 0 -5.53473 1.5568 5.77605 -3.05487 -58.9099 -0.10535 7.71683 58.07624 -17.94486 32.32537 86.30252 93.75009 -27.02949 -4.81696 57.28721 6.20526 -27.34681 81.99697 -90.84795 -34.52149 4.08693 63.13866 0.81614 -4.2273 -60.12589 1.36599 0.64301 7.63375 82.36989 6.10059 1.38045 -109.15312 4.11601 1.05295 -0.77808
-0.46677 0.6916 -0.00776 897.69293 0 -5.52324 1.6118 5.83952 -2.40658 -59.71327 0.24198 7.84672 58.79388 -18.63257 32.38984 87.09483 92.94055 -27.30817 -4.67718 58.34093 5.75647 -27.76471 81.88871 -90.92496 -34.21186 4.09541 63.08135 0.80807 -4.15805 -60.14246 1.27129 0.61517 7.57111 82.15038 6.02696 2.0305 -109.70196 6.32494 0.39975 -1.35957
